<svg width="60" height="60" viewBox="0 0 60 60" fill="none" xmlns="http://www.w3.org/2000/svg">
<rect width="60" height="60" fill="#101A26"/>
<path d="M44.5946 20.021L31.3334 12.351C30.9203 12.1208 30.4551 12 29.9821 12C29.509 12 29.0438 12.1208 28.6307 12.351L15.3695 20.021C14.9556 20.2564 14.611 20.5968 14.3706 21.0077C14.1302 21.4186 14.0024 21.8856 14.0002 22.3615V37.6654C13.9948 38.1429 14.1194 38.6129 14.3606 39.0251C14.6018 39.4374 14.9505 39.7764 15.3695 40.006L28.6307 47.6399C29.0485 47.876 29.5202 48 30 48C30.4799 48 30.9517 47.876 31.3694 47.6399L44.6306 40.006C45.0447 39.7705 45.3892 39.4302 45.6296 39.0193C45.87 38.6083 45.9978 38.1414 46 37.6654V22.3615C45.9754 21.8863 45.8345 21.4242 45.5894 21.0161C45.3444 20.608 45.0027 20.2663 44.5946 20.021ZM29.3514 13.6474C29.5417 13.5526 29.7514 13.5032 29.964 13.5032C30.1766 13.5032 30.3863 13.5526 30.5766 13.6474L43.6937 21.2093L37.0631 25.0623C36.2665 23.9183 35.2049 22.9839 33.9688 22.3386C32.7327 21.6933 31.3587 21.3562 29.964 21.3562C28.5694 21.3562 27.1954 21.6933 25.9593 22.3386C24.7232 22.9839 23.6615 23.9183 22.865 25.0623L16.2344 21.2093L29.3514 13.6474ZM29.964 37.1253C28.5528 37.1253 27.1734 36.7071 26 35.9237C24.8267 35.1402 23.9121 34.0267 23.3721 32.7239C22.832 31.4211 22.6908 29.9876 22.966 28.6045C23.2413 27.2215 23.9209 25.9511 24.9188 24.9539C25.9166 23.9569 27.188 23.2778 28.5721 23.0027C29.9562 22.7276 31.3908 22.8688 32.6945 23.4084C33.9983 23.948 35.1127 24.8619 35.8967 26.0344C36.6807 27.2068 37.0992 28.5853 37.0992 29.9955C37.0944 31.885 36.3411 33.6957 35.0041 35.0317C33.667 36.3678 31.855 37.1205 29.964 37.1253ZM16.0902 38.7096C15.9075 38.6022 15.7553 38.4499 15.648 38.2671C15.5408 38.0844 15.4822 37.8772 15.4776 37.6654V22.5416L22.1082 26.3585C21.5757 27.498 21.2931 28.738 21.2794 29.9955C21.2891 32.1535 22.1028 34.2306 23.5619 35.8217C25.0209 37.4127 27.0207 38.4038 29.1712 38.6016V46.2716L16.0902 38.7096ZM43.8379 38.7096L30.7208 46.2716V38.6016C32.8747 38.4126 34.8797 37.4241 36.3405 35.8311C37.8013 34.2381 38.6119 32.1561 38.6126 29.9955C38.6205 28.7355 38.3368 27.4909 37.7838 26.3585L44.4144 22.5416V37.6654C44.4249 37.8758 44.3764 38.0849 44.2745 38.2693C44.1727 38.4538 44.0215 38.6063 43.8379 38.7096Z" fill="#0053E2"/>
</svg>
