<svg width="60" height="60" viewBox="0 0 60 60" fill="none" xmlns="http://www.w3.org/2000/svg">
<rect width="60" height="60" fill="#101A26"/>
<path d="M15.8311 35.4521C15.9397 35.4521 18.8006 35.4496 20.1399 35.4521C22.6738 35.4581 24.6491 37.4008 24.6817 39.8357C24.6817 39.8357 29.0641 39.8357 29.116 39.8357C29.116 35.8671 26.8283 33.688 26.1948 33.1607C28.6346 30.9284 29.5564 28.006 28.9181 24.8024C28.0807 20.5925 24.4693 17.7943 20.1749 17.7871C17.3466 17.7822 11.4957 17.7871 11.404 17.7871V39.8369C11.404 39.8369 13.2899 39.8369 15.8311 39.8369V35.4521ZM15.8311 22.2226C15.9397 22.2226 18.8006 22.2202 20.1399 22.2226C22.6738 22.2286 24.5827 23.9879 24.6805 26.5146C24.7541 28.409 23.4123 30.2467 21.5215 30.7836C21.0389 30.9212 20.5248 30.9912 20.0229 31.0032C18.7306 31.0334 15.9445 31.0129 15.8299 31.0129V22.2226H15.8311Z" fill="#0053E2"/>
<path d="M43.487 39.8331V35.4229H47.896L47.8936 39.8331H43.487Z" fill="#A9DDF7"/>
<path d="M47.8959 31.0175V30.9945C47.8959 26.1125 43.9382 22.156 39.0574 22.156C34.1766 22.156 30.2189 26.1125 30.2189 30.9945C30.2189 35.8766 34.1766 39.8331 39.0574 39.8331H41.2824V35.4229H39.0574C36.6152 35.4229 34.6279 33.4355 34.6279 30.9933C34.6279 28.5511 36.6152 26.5638 39.0574 26.5638C41.4996 26.5638 43.4869 28.5511 43.4869 30.9933V31.0319L42.3853 31.0356L45.8266 34.3248L49 31.0126L47.8971 31.0163L47.8959 31.0175Z" fill="#0053E2"/>
</svg>
